<?xml version="1.0" encoding="UTF-8"?>
<!DOCTYPE svg PUBLIC "-//W3C//DTD SVG 1.1//EN" "http://www.w3.org/Graphics/SVG/1.1/DTD/svg11.dtd">
<!-- Creator: CorelDRAW -->
<svg xmlns="http://www.w3.org/2000/svg" xml:space="preserve" width="185.624mm" height="185.624mm" version="1.1" style="shape-rendering:geometricPrecision; text-rendering:geometricPrecision; image-rendering:optimizeQuality; fill-rule:evenodd; clip-rule:evenodd"
viewBox="0 0 18880.6 18880.6"
 xmlns:xlink="http://www.w3.org/1999/xlink"
 xmlns:xodm="http://www.corel.com/coreldraw/odm/2003">
 <defs>
  <style type="text/css">
   <![CDATA[
    .fil0 {fill:#092FEB}
    .fil1 {fill:#FEFEFE}
   ]]>
  </style>
 </defs>
 <g id="Layer_x0020_1">
  <metadata id="CorelCorpID_0Corel-Layer"/>
  <g id="_47468596224">
   <path class="fil0" d="M-0 2337.7l0 14219.29c64.14,119.39 36.18,1349.06 1397.13,2051.17 140.98,72.74 245.25,114.85 405.96,164.93 124.46,38.78 397.61,73.97 477.42,107.5l14355.68 0c148.51,-62.8 415,-54.35 848.89,-269.34 268.82,-133.22 480.32,-307.71 661.47,-483.19 695.43,-673.71 663.11,-1374.26 734.05,-1531.92l0 -14281.29c-37.79,-110.06 -53.07,-340.52 -94.53,-484.25 -43.99,-152.47 -98.53,-282.48 -161.85,-411.4 -128.05,-260.75 -312.51,-505.95 -477.96,-666.46 -736.98,-715.04 -1281.29,-638.45 -1544.79,-752.74l-14268.27 0c-93.29,33.85 -345.14,55.39 -483.9,97.56 -590.04,179.32 -1026.48,492.93 -1375,966.89 -469.8,638.9 -408.1,1117.36 -474.32,1273.25z"/>
   <path class="fil1" d="M11438.89 12433.43c-68.02,38.38 -84.82,83.13 -137.74,140.34 -232.12,250.91 -695.89,843.65 -934.64,961.57 -16.19,949.61 142.4,1027.15 -649.62,1027.04l-4240.76 0.43c-291.54,0.34 -551.8,49.9 -649.44,-195.07 -47.36,-118.83 -23.37,-6104.8 -22.93,-6771.25l0.26 -2544.45c-0.45,-890.29 -91.37,-725.46 1833.7,-726.72 565.42,-0.37 1130.86,0.5 1696.3,0.41 560.85,-0.09 1138.31,-13.14 1697.07,-0.33 317.82,7.28 338.39,221.99 337.54,523.82 -1.15,403.49 -22.86,4093.67 3.15,4230.13 114.08,-151.6 661.52,-726.56 826.25,-923.5 132.82,-158.81 242.63,-209.41 244.27,-373.93l-2.86 -3559.6c-0.06,-444.04 -30.12,-689.9 -319.49,-886.55 -278.07,-188.97 -674.51,-133.66 -1052.76,-133.57 -399.47,0.1 -799,-0.37 -1198.47,-0.72l-3558.55 -0.23c-613.09,0.09 -1577.14,-175.81 -1576.73,799.13l-0.09 10731.66c-0.19,418.71 49.93,656.24 335.33,835.79 271.06,170.51 702.17,116.81 1075.55,116.25 1585.62,-2.34 3171.39,2.72 4757.03,0.15 672.92,-1.1 1538.97,167.6 1538.06,-841.57 -0.72,-802.49 7.52,-1607.05 -0.43,-2409.23z"/>
   <path class="fil1" d="M9508.31 10788.32c-64.67,-98.9 -1014.85,-1035.93 -1121.37,-1142.75 -165.21,-165.67 -358.77,-404.76 -634.07,-509.18 -306.62,-116.29 -663.2,-53.93 -905.24,108.03 -552.82,369.9 -635.87,1099.23 -182.87,1533.19 393.53,377 761.48,753.85 1147.86,1138.54l1132.58 1135.39c336.44,281.99 894.59,305.37 1258.35,-8.53l812.73 -901.91c308.25,-314.02 778.93,-901.24 1078.93,-1207.58l2950.37 -3318.65c91.67,-100.29 189.9,-187.58 263.41,-308 303.4,-497.02 71.21,-1247.33 -572.68,-1466.11 -317.75,-107.96 -692.79,-31.8 -904.92,135.72 -112.67,88.97 -672.51,738.72 -805.99,890.86l-1885.9 2115.06c-152.52,182.97 -1567.8,1781.56 -1631.19,1805.93z"/>
   <polygon class="fil1" points="5275.28,7292.49 9891.93,7292.64 9895.9,6734.58 5271.14,6726.9 "/>
   <polygon class="fil1" points="5275.02,5562.48 9894.99,5566.06 9896.96,5004.43 5277.18,5001.38 "/>
   <path class="fil1" d="M5272.33 13945.02l4623.49 5.23 -2.09 -190.9c-493.81,27.05 -863.51,31.79 -1245.77,-299.99 -110.72,-96.09 -59.89,-81.3 -239.98,-78.28l-1880.92 0.94c-382.37,-0.55 -885.97,-27.61 -1253.89,2.82l-0.86 560.18z"/>
   <path class="fil1" d="M5272.57 9036.99c219.35,11.73 461.47,3.23 682.94,3.88 432.77,1.25 273.35,30.84 536.98,-170.23 532.79,-406.34 1256.76,-410.98 1808.31,-5.59 43.37,31.88 170.67,154.19 189.57,162.74 70.87,32.06 1221.08,12 1400.15,11.66l3.27 -565.47 -4621.67 -1.09 0.46 564.11z"/>
   <path class="fil1" d="M5273.79 12292.68l2196.49 2.12c-54.92,-85.26 -380.58,-371.99 -516.56,-515.54 -72.51,-76.56 -161.05,-48.48 -297.57,-47.77 -455.31,2.37 -925.81,-11.31 -1378.86,3.37l-3.51 557.82z"/>
   <path class="fil1" d="M5272.85 10651.99l698.07 2.69c-54.67,-224.93 -97.79,-289.98 -99.28,-558.62l-600.53 2.37 1.75 553.56z"/>
  </g>
 </g>
</svg>
